<svg width="111" height="109" viewBox="0 0 111 109" fill="none" xmlns="http://www.w3.org/2000/svg">
<g id="icon 1" clip-path="url(#clip0_6_90)">
<path id="Vector" fill-rule="evenodd" clip-rule="evenodd" d="M55.8822 109C70.3604 109 84.2456 103.258 94.4832 93.0373C104.721 82.8166 110.472 68.9543 110.472 54.5C110.472 40.0457 104.721 26.1834 94.4832 15.9627C84.2456 5.74195 70.3604 0 55.8822 0C41.4039 0 27.5187 5.74195 17.2811 15.9627C7.04344 26.1834 1.29199 40.0457 1.29199 54.5C1.29199 68.9543 7.04344 82.8166 17.2811 93.0373C27.5187 103.258 41.4039 109 55.8822 109ZM22.3456 80.2785C22.0982 80.1892 21.8708 80.0521 21.6764 79.875C21.4821 79.6979 21.3247 79.4843 21.2132 79.2463C21.1016 79.0084 21.0381 78.7509 21.0264 78.4885C21.0146 78.2261 21.0548 77.9639 21.1446 77.717L42.2528 19.8562C42.5622 18.9478 43.4902 18.4392 44.4 18.5845C44.855 18.5134 45.3206 18.601 45.7184 18.8326C46.1161 19.0643 46.4217 19.4258 46.5836 19.8562L52.0426 34.8073H58.8482L64.2345 20.056C64.562 19.1477 65.49 18.6027 66.4181 18.748C66.8747 18.6836 67.3396 18.7786 67.7341 19.017C68.1287 19.2553 68.4287 19.6223 68.5835 20.056L89.6735 77.8987C89.8569 78.3973 89.8343 78.9483 89.6108 79.4304C89.3873 79.9125 88.9811 80.2862 88.4816 80.4692C87.9821 80.6523 87.4302 80.6298 86.9473 80.4067C86.4644 80.1835 86.0901 79.778 85.9067 79.2793L81.8853 68.1977H64.2345L67.6918 77.717C67.7814 77.9639 67.8215 78.226 67.8096 78.4884C67.7977 78.7508 67.7342 79.0082 67.6227 79.2461C67.5112 79.4839 67.3538 79.6975 67.1596 79.8747C66.9654 80.0518 66.7382 80.189 66.4908 80.2785C66.2435 80.368 65.981 80.4079 65.7182 80.3961C65.4554 80.3842 65.1975 80.3208 64.9592 80.2095C64.721 80.0982 64.507 79.9411 64.3296 79.7472C64.1522 79.5533 64.0147 79.3264 63.9251 79.0795L55.4636 55.8443L46.9112 79.2793C46.8327 79.5408 46.7015 79.7834 46.5255 79.9922C46.3495 80.2011 46.1326 80.3717 45.888 80.4937C45.6434 80.6156 45.3764 80.6862 45.1035 80.7012C44.8305 80.7161 44.5574 80.6751 44.3009 80.5807C44.0444 80.4862 43.8101 80.3403 43.6123 80.1519C43.4144 79.9636 43.2574 79.7367 43.1507 79.4855C43.0441 79.2342 42.9901 78.9637 42.9921 78.6908C42.9942 78.4179 43.0522 78.1483 43.1626 77.8987L46.6928 68.1977H28.8964L24.9295 79.0977C24.7453 79.5933 24.3718 79.9958 23.891 80.2171C23.4101 80.4385 22.8609 80.4605 22.3638 80.2785H22.3456ZM76.6628 53.9368L80.4113 64.201H62.7423L58.9938 53.9187H76.6628V53.9368ZM30.334 64.201H48.1304L51.8789 53.9187H34.0825L30.334 64.201ZM71.1492 38.804L75.2071 49.922H57.5926L61.6505 38.804H71.1492ZM49.2222 38.804L53.28 49.922H35.5382L39.5961 38.804H49.2404H49.2222ZM47.7664 34.8073L44.4 25.5787L41.0518 34.8073H47.7846H47.7664ZM53.4802 38.804L55.4454 44.1632L57.3925 38.804H53.4984H53.4802ZM69.6935 34.8073L66.4181 25.7785L63.1063 34.8073H69.6935Z" fill="#F7F6E8"/>
</g>
<defs>
<clipPath id="clip0_6_90">
<rect width="111" height="109" fill="white"/>
</clipPath>
</defs>
</svg>
